inDegrees=no
num_controls=7
num_derivatives=13
num_iterations=115
num_multipliers=7
num_parameters=0
num_slacks=7
num_states=26
objective=4.936332
objective_accelerations=0.699180
objective_balance=0.024951
objective_effort=0.675494
objective_height=3.429806
objective_ligament=0.106902
solver_duration=1166.457589
status=Solve_Succeeded
success=true
DataType=double
version=3
OpenSimVersion=4.4-2022-07-23-0e9fedc
endheader
time	/jointset/ground_pelvis/pelvis_tilt/value	/jointset/ground_pelvis/pelvis_tx/value	/jointset/ground_pelvis/pelvis_ty/value	/jointset/hip_l/hip_flexion_l/value	/jointset/hip_l/hip_adduction_l/value	/jointset/hip_l/hip_rotation_l/value	/jointset/back/lumbar_extension/value	/jointset/patellofemoral_l/patellar_flexion_l/value	/jointset/knee_l/knee_flexion_l/value	/jointset/knee_l/knee_adduction_l/value	/jointset/knee_l/knee_rotation_l/value	/jointset/ankle_l/ankle_angle_l/value	/jointset/subtalar_l/subtalar_angle_l/value	/jointset/ground_pelvis/pelvis_tilt/speed	/jointset/ground_pelvis/pelvis_tx/speed	/jointset/ground_pelvis/pelvis_ty/speed	/jointset/hip_l/hip_flexion_l/speed	/jointset/hip_l/hip_adduction_l/speed	/jointset/hip_l/hip_rotation_l/speed	/jointset/back/lumbar_extension/speed	/jointset/patellofemoral_l/patellar_flexion_l/speed	/jointset/knee_l/knee_flexion_l/speed	/jointset/knee_l/knee_adduction_l/speed	/jointset/knee_l/knee_rotation_l/speed	/jointset/ankle_l/ankle_angle_l/speed	/jointset/subtalar_l/subtalar_angle_l/speed	/forceset/tau_hip_flexion_l	/forceset/tau_hip_adduction_l	/forceset/tau_hip_rotation_l	/forceset/tau_knee_flexion_l	/forceset/tau_ankle_angle_l	/forceset/tau_subtalar_angle_l	/forceset/tau_lumbar_extension	lambda_cid13_p0	lambda_cid13_p1	lambda_cid13_p2	lambda_cid13_p3	lambda_cid13_p4	lambda_cid13_p5	lambda_cid14_p0	/jointset/ground_pelvis/pelvis_tilt/accel	/jointset/ground_pelvis/pelvis_tx/accel	/jointset/ground_pelvis/pelvis_ty/accel	/jointset/hip_l/hip_flexion_l/accel	/jointset/hip_l/hip_adduction_l/accel	/jointset/hip_l/hip_rotation_l/accel	/jointset/back/lumbar_extension/accel	/jointset/patellofemoral_l/patellar_flexion_l/accel	/jointset/knee_l/knee_flexion_l/accel	/jointset/knee_l/knee_adduction_l/accel	/jointset/knee_l/knee_rotation_l/accel	/jointset/ankle_l/ankle_angle_l/accel	/jointset/subtalar_l/subtalar_angle_l/accel	gamma_cid13_p0	gamma_cid13_p1	gamma_cid13_p2	gamma_cid13_p3	gamma_cid13_p4	gamma_cid13_p5	gamma_cid14_p0
0	-0.03565676643419276	0.05616946665136303	0.9203621806879254	0.3085811930696054	-0.2953096881097418	-0.2942981280293248	-0.3879500408040475	0.249927658227097	0.249927658227084	-0.1745328269683448	-0.1673623214730117	-0.0008036543073733089	0.000686566638471025	0	0	0	0	0	0	0	0	0	0	0	0	0	0.09006787498544966	-0.02216370011770066	-0.01360317189700353	-0.1994015286532935	0.09689905223010432	-0.02574890315459182	-0.03495442262876167	-10.76880656461317	9.924860767242699	1.553948994337929	51.27804207436	-576.1088816321405	-55.24389811940998	-22.95663233423488	-2.133782060931452	-3.62456982614125	-1.577979934062129	16.62895514613697	-0.7422614391987875	4.822458142536695	-9.867402991222317	15.98473370061921	15.98473370061953	3.525414743259462	-0.6333669367875282	2.647078178902547	0.08645353878027121	5.579478351625774e-08	4.054338788930591e-07	1.424168129780787e-08	-4.894379502646392e-08	4.640240664935892e-07	7.883248753550828e-08	3.635276240277865e-08
0.01	-0.0357568784816964	0.05599114755374317	0.9202849462678264	0.3093928972564555	-0.2953475552535031	-0.2940562329453486	-0.3884422285033472	0.25071261336015	0.2507126133601653	-0.1743630720018637	-0.1673891737021772	-0.0006736004773276381	0.0006893031655416825	-0.01992789116520879	-0.0353950480420441	-0.01539678507082568	0.1614445354090283	-0.007535512113305378	0.04815461003902409	-0.09768903772733781	0.1562299423185999	0.1562299423185963	0.03375250019855642	-0.005309198768162145	0.0259999270944703	0.0005850822848930731	0.08417954817169331	-0.03390194095480788	-0.013186980268214	-0.1981003789214897	0.09502580257145014	-0.0123837286772607	-0.02834961088165176	-11.00152407177456	4.292229498406196	2.302180294584909	48.38426635918677	-580.0763120653787	-66.54993191571161	-22.96634207586677	-1.9081321885072	-3.456666360553367	-1.51292014644687	15.76774893866622	-0.7535850391577027	4.778321029846011	-9.607378842847856	15.32795458289019	15.32795458288942	3.270466983157344	-0.4705214677709963	2.574838098371344	0.05013520149165631	-6.661390904754584e-09	3.753059750172975e-07	2.177694496816763e-07	1.911976282734388e-08	1.900080810108166e-07	-7.395938252832244e-08	1.750755153701328e-08
0.02	-0.03605343734970937	0.05546693916223849	0.920055265526448	0.3117921560374567	-0.2954596553067474	-0.2933395200419273	-0.3898888515157986	0.2530370339334994	0.2530370339334991	-0.1738617321683743	-0.1674672829431707	-0.000283869751607196	0.0006990104410907906	-0.03928936409800579	-0.06917785877696056	-0.03048926425587949	0.3175109188332727	-0.01484658189706651	0.09496356388847878	-0.1908870626289553	0.3078930880535921	0.3078930880535805	0.06631697339725096	-0.01025140237394946	0.0519353791350184	0.001394149695694841	0.07829122135790241	-0.04564018179191201	-0.01277078863969184	-0.1967992291896762	0.09315255291279229	0.0009814458000758865	-0.02174479913456346	-11.10561300486241	-1.359089605282681	3.049005898877709	45.34760947181425	-582.0843971276164	-77.70098112429338	-22.994717664653	-2.020498414448716	-3.302122364716025	-1.517118756907761	15.55332474918022	-0.6973729732899647	4.553326904622797	-8.969200426078018	15.07137438389774	15.07137438389716	3.28780934328705	-0.5599679043126236	2.634183168117771	0.1312505639618682	-6.911756532576691e-08	3.45178071141536e-07	4.212972180655447e-07	8.718332068115167e-08	-8.40079044719559e-08	-2.267512525921532e-07	-1.337659328752091e-09
0.03	-0.03654114586249863	0.05461305345411446	0.9196755480544409	0.315725684263312	-0.2956431778350689	-0.2921628681164416	-0.3922438758337844	0.256855143536119	0.2568551435361049	-0.1730401237555119	-0.1675936715806587	0.000364708790822189	0.0007184579505552658	-0.05813519881353002	-0.1013219407244602	-0.04545583034491548	0.4682720746237271	-0.02178741467473452	0.1401025817307598	-0.2793271991244236	0.4549426852065477	0.4549426852065291	0.09780690184076589	-0.01494681776917203	0.07775306938527012	0.002560867598387158	0.07052355725521769	-0.04008668189857884	-0.01219534470291026	-0.1935454957687491	0.09392509881002722	-0.001195513994377659	-0.01412978234505807	-10.91206170447089	-0.4755848222019174	2.940203309877981	42.95820367689496	-583.3358839486882	-74.65835737853735	-23.0400855373663	-1.79906361370472	-3.128932080386991	-1.486683473535497	14.69910137790637	-0.6819826716778193	4.45450562748896	-8.662829984101634	14.40383063552887	14.4038306355281	3.050017457663812	-0.4123409798383967	2.551483100891793	0.1191057151111067	-1.110373401863055e-07	2.759927575437618e-07	5.306554006239855e-07	1.326389339589015e-07	-2.839819036078189e-07	-3.191823868225408e-07	-1.61901118813992e-08
0.04	-0.03721380024517827	0.0534460507323906	0.9191461133338164	0.3211391421238567	-0.2958940175394988	-0.2905427627318397	-0.3954595834612909	0.2621201647611588	0.2621201647611585	-0.1719095294856454	-0.1677646168966664	0.001270648465236678	0.0007515173013842221	-0.07627853807299312	-0.131801261496923	-0.06043271397932144	0.6134968457713221	-0.02831001711930048	0.183654255711364	-0.3630237245326565	0.5972754125408798	0.5972754125408527	0.1281141447954719	-0.01916273807284919	0.1034076055320343	0.004116517968600541	0.06275589315257706	-0.03453318200527889	-0.01161990076596191	-0.1902917623478425	0.09469764470724688	-0.003372473788872766	-0.006514765555496165	-10.6045593537119	0.3941605581830805	2.82651765202464	40.42581668057353	-582.8684367617514	-71.46621042835056	-23.10019469242955	-1.879999323236116	-2.969170129708923	-1.519182265981762	14.44604782060839	-0.6137269066695664	4.235858132287428	-8.02047820863071	14.12800042017311	14.12800042017221	3.051272245525248	-0.4640688860036007	2.601552347419947	0.2090370574659588	-1.525336841280714e-07	2.060021365290388e-07	6.380719422375721e-07	1.776284040495162e-07	-4.824292638499314e-07	-4.103689697986305e-07	-3.096023952037377e-08
0.05	-0.03806519522372147	0.05198243369020848	0.9184662274368607	0.3279790233469229	-0.2962077701529807	-0.2884959450345578	-0.3994884901023054	0.2687859111838495	0.2687859111838455	-0.170481442814376	-0.1679760811645388	0.002432261634305914	0.0008022932525268933	-0.09388263550295012	-0.1606566564791444	-0.0755928702822305	0.753600163015971	-0.03436764013589873	0.225435011201231	-0.4420549911935602	0.7351093825733099	0.7351093825732962	0.1572730806999515	-0.02304176240582679	0.1288596857983886	0.006096759902737566	0.05542613132971043	-0.03426750519803697	-0.01102013494423	-0.1880262514535465	0.09449023828082448	-0.0009861320022479124	0.000328312543111512	-10.39587837132885	-0.6484286240365511	2.958082866894873	38.05705084996298	-581.5506227675496	-72.31912541777417	-23.17221055006828	-1.682940999521276	-2.803864724935904	-1.521791132490545	13.66057704418556	-0.5909750301054548	4.107955064327261	-7.739059022734367	13.4964281927343	13.49642819273692	2.813788253935557	-0.3364620896162953	2.508738401178474	0.2011249514694761	-1.754737853012645e-07	5.786581844424927e-08	6.784486212210455e-07	1.890008594274616e-07	-5.812103467564911e-07	-4.6702880415084e-07	-5.050019685314595e-08
0.06	-0.03908909638590807	0.05023823458971187	0.9176332682128667	0.3361935584159892	-0.2965799380028174	-0.2860395656209787	-0.404286631035515	0.2768070638864578	0.2768070638864567	-0.168768649985857	-0.1682236642522728	0.00384673611302552	0.0008745930610272693	-0.1107797747986759	-0.187917673159821	-0.09104737938696178	0.8884276149723125	-0.03999306439052051	0.2655665989707341	-0.5168705829709821	0.8683566685239951	0.8683566685240004	0.1850553762454749	-0.0263865020456661	0.1539798674621516	0.008421289440146626	0.0480963695068837	-0.03400182839079571	-0.01042036912250626	-0.1857607405592285	0.09428283185440943	0.001400209784378923	0.007171390641745624	-10.09183714283791	-1.704596962267007	3.088250173477427	35.5549438463682	-578.8013473562884	-73.04403444713395	-23.25289928573618	-1.738607696389509	-2.650294469400208	-1.57805282634621	13.39087476294689	-0.5272871542742854	3.906024588214631	-7.177343231934151	13.2106636038242	13.21066360382439	2.775944173733995	-0.3572119473760007	2.535172626901377	0.2778945781202502	-1.976325709894651e-07	-9.356084478033245e-08	7.160025691464088e-07	1.989578615543473e-07	-6.757949548278695e-07	-5.222348806662546e-07	-7.024098912039381e-08
0.07000000000000001	-0.04027923163584968	0.04822950275398299	0.9166438588024224	0.3457313837613734	-0.2970058351157867	-0.2831912196659113	-0.4098106472182572	0.2861385289494316	0.2861385289494288	-0.1667841740059843	-0.1685029663210704	0.005510997014305585	0.0009723343394862938	-0.1271242648811437	-0.2135496590396712	-0.1069100969616702	1.018248962445433	-0.04509628861271651	0.303812722637904	-0.5872048305869979	0.9971636707748406	0.9971636707748236	0.2116139897390697	-0.02937396004648324	0.178816066443213	0.0112031155340029	0.04010249966520242	-0.03236749361678626	-0.009789892893340266	-0.183587067346031	0.0944219293881108	0.002688913339326044	0.01442791184568101	-9.724549711772756	-2.30140248610273	3.152342217740594	33.07740976408923	-576.1459489444541	-72.68328722045048	-23.33860398471834	-1.563910580015214	-2.477755493754235	-1.601856667483251	12.64448298680399	-0.4884152457853635	3.740310269796272	-6.852292077338658	12.59983182897436	12.59983182897095	2.561999419153279	-0.2543920019720246	2.449400376387186	0.2896831295195831	-2.068594131093834e-07	-2.444338046861486e-07	7.00596220896017e-07	1.942719431198859e-07	-7.082722398726889e-07	-5.387150582740483e-07	-8.615460034964752e-08
0.08	-0.04162911996979868	0.04597283009015946	0.9154935271273407	0.3565407662309459	-0.2974800795088948	-0.2799691316714062	-0.4160161711873433	0.2967348866935653	0.2967348866935682	-0.1645408759947794	-0.1688091188249844	0.007421931273931756	0.001100165179784094	-0.142730391597139	-0.2375058387787478	-0.1232318323144161	1.142739039810928	-0.04966252041863987	0.3403150068581976	-0.6531721402391025	1.121335204756072	1.121335204756033	0.236819782511902	-0.03175658906880112	0.2033145391314173	0.01443920180790628	0.03210862982355506	-0.03073315884277737	-0.009159416664164283	-0.1814133941328233	0.09456102692181491	0.003977616894273412	0.02168443304964283	-9.2802507901028	-2.908388279664405	3.214283597344873	30.47812176298147	-572.3469489601871	-72.21180646269679	-23.42534870389663	-1.590935023094661	-2.315133241245708	-1.669856381953735	12.32462074142191	-0.4198886710197732	3.557256698839367	-6.303955639151707	12.28356994990149	12.28356994990162	2.505380029581471	-0.236246151676207	2.467627368329681	0.368746614129561	-2.152519362894125e-07	-3.952710417972054e-07	6.817730793439636e-07	1.886413201330794e-07	-7.367426008512784e-07	-5.526967907910279e-07	-1.018212966732242e-07
